<svg xmlns="http://www.w3.org/2000/svg" version="1.1" xmlns:xlink="http://www.w3.org/1999/xlink" width="512" height="512" x="0" y="0" viewBox="0 0 24 24" style="enable-background:new 0 0 512 512" xml:space="preserve" class=""><g><path d="M6.75 5.5a1 1 0 0 1-1-1V1a1 1 0 0 1 2 0v3.5a1 1 0 0 1-1 1zM11.5 5.5a1 1 0 0 1-1-1V1a1 1 0 0 1 2 0v3.5a1 1 0 0 1-1 1zM16.25 5.5a1 1 0 0 1-1-1V1a1 1 0 0 1 2 0v3.5a1 1 0 0 1-1 1z" fill="#000000" opacity="1" data-original="#000000" class=""></path><path d="M18.25 2.25H4.75A2.752 2.752 0 0 0 2 5v16.25A2.752 2.752 0 0 0 4.75 24h13.5A2.752 2.752 0 0 0 21 21.25V5a2.752 2.752 0 0 0-2.75-2.75zM7 8h5a1 1 0 0 1 0 2H7a1 1 0 0 1 0-2zm10 10H7a1 1 0 0 1 0-2h10a1 1 0 0 1 0 2zm0-4H7a1 1 0 0 1 0-2h10a1 1 0 0 1 0 2z" fill="#000000" opacity="1" data-original="#000000" class=""></path></g></svg>