<svg xmlns="http://www.w3.org/2000/svg" version="1.1" xmlns:xlink="http://www.w3.org/1999/xlink" xmlns:svgjs="http://svgjs.com/svgjs" width="512" height="512" x="0" y="0" viewBox="0 0 512 512" style="enable-background:new 0 0 512 512" xml:space="preserve" class=""><g><path fill="#f9f2f2" d="M65.988 168.1h4.95v-58.375C70.938 49.126 120.063 0 180.663 0c53.421 0 97.905 38.185 107.698 88.745 13.589-13.439 32.267-21.743 52.889-21.743 41.547 0 75.227 33.68 75.227 75.227 0 9.09-1.612 17.804-4.567 25.871h34.101c36.444 0 65.988 29.544 65.988 65.988s-29.544 65.988-65.988 65.988H65.988C29.544 300.076 0 270.533 0 234.088 0 197.644 29.544 168.1 65.988 168.1z" data-original="#f9f2f2" class=""></path><path fill="#e7e2ee" d="M446.012 168.1H411.91a75.068 75.068 0 0 0 4.567-25.871c0-41.547-33.68-75.227-75.227-75.227-20.622 0-39.3 8.304-52.889 21.743-4.443-22.938-16.042-43.311-32.361-58.744v270.076h190.012c36.444 0 65.988-29.544 65.988-65.988 0-36.445-29.544-65.989-65.988-65.989z" data-original="#e7e2ee" class=""></path><path fill="#a5e1bd" d="M224.295 181.938h136.8c8.3 0 15.029 6.729 15.029 15.029v300.004c0 8.3-6.729 15.029-15.029 15.029H150.904c-8.3 0-15.029-6.729-15.029-15.029V269.249l54.21-33.656z" data-original="#a5e1bd" class=""></path><path fill="#71bda5" d="M361.096 181.938H256V512h105.095c8.3 0 15.029-6.729 15.029-15.029V196.967c.001-8.3-6.728-15.029-15.028-15.029z" data-original="#71bda5" class=""></path><path fill="#518f8d" d="M135.875 269.249h73.42c8.284 0 15-6.716 15-15v-72.311z" data-original="#518f8d"></path><path fill="#3b5988" d="M256 379.272h-37.479c-8.284 0-15 6.716-15 15s6.716 15 15 15H256l10-15z" data-original="#3b5988"></path><path fill="#283c5b" d="M296.322 379.272H256v30h40.322c8.284 0 15-6.716 15-15s-6.716-15-15-15z" data-original="#283c5b"></path><path fill="#3b5988" d="M218.521 349.272H256l10-15-10-15h-37.479c-8.284 0-15 6.716-15 15 0 8.285 6.716 15 15 15z" data-original="#3b5988"></path><path fill="#283c5b" d="M296.322 319.272H256v30h40.322c8.284 0 15-6.716 15-15s-6.716-15-15-15z" data-original="#283c5b"></path><path fill="#e9d049" d="M381.871 512c-55.211 0-100.129-44.918-100.129-100.129s44.918-100.129 100.129-100.129S482 356.66 482 411.871 437.082 512 381.871 512z" data-original="#e9d049"></path><path fill="#e1b633" d="M381.872 311.742V512C437.082 512 482 467.082 482 411.871s-44.918-100.129-100.128-100.129z" data-original="#e1b633"></path><circle cx="381.871" cy="411.871" r="70.129" fill="#e7e2ee" data-original="#e7e2ee" class=""></circle><path fill="#d1ccde" d="M381.872 341.742V482C420.603 482 452 450.602 452 411.871s-31.397-70.129-70.128-70.129z" data-original="#d1ccde"></path><path fill="#d37b5f" d="m403.084 411.604 7.535-7.535c5.858-5.857 5.858-15.355 0-21.213-5.857-5.857-15.355-5.857-21.213 0l-7.535 7.535-7.535-7.535c-5.857-5.857-15.355-5.857-21.213 0s-5.858 15.355 0 21.213l7.535 7.535-7.535 7.535c-5.858 5.858-5.858 15.355 0 21.213 2.929 2.929 6.768 4.394 10.607 4.394s7.678-1.465 10.606-4.394l7.535-7.535 7.535 7.535c2.929 2.929 6.767 4.394 10.606 4.394s7.678-1.465 10.606-4.394c5.858-5.857 5.858-15.355 0-21.213z" data-original="#d37b5f"></path><path fill="#c5344e" d="m403.084 411.604 7.535-7.535c5.858-5.857 5.858-15.355 0-21.213-5.857-5.857-15.355-5.857-21.213 0l-7.535 7.535v42.427l7.535 7.535c2.929 2.929 6.767 4.394 10.606 4.394s7.678-1.465 10.606-4.394c5.858-5.857 5.858-15.355 0-21.213z" data-original="#c5344e"></path></g></svg>