<svg xmlns="http://www.w3.org/2000/svg" version="1.1" xmlns:xlink="http://www.w3.org/1999/xlink" width="512" height="512" x="0" y="0" viewBox="0 0 512 512" style="enable-background:new 0 0 512 512" xml:space="preserve" class=""><g><path fill="#ffd580" d="M316.998 166h-150c-8.291 0-15-6.709-15-15V91c0-8.291 6.709-15 15-15h150c8.291 0 15 6.709 15 15v60c0 8.291-6.709 15-15 15z" opacity="1" data-original="#ffd580" class=""></path><path fill="#f24973" d="M417.603 20.395c-5.859-5.859-15.352-5.859-21.211 0L376.997 39.79l-19.395-19.395c-5.859-5.859-15.352-5.859-21.211 0s-5.859 15.352 0 21.211l30 30c2.93 2.93 6.768 4.395 10.605 4.395s7.676-1.465 10.605-4.395l30-30c5.862-5.86 5.862-15.352.002-21.211z" opacity="1" data-original="#f24973" class=""></path><path fill="#d92c49" d="m387.603 71.605 30-30c5.859-5.859 5.859-15.352 0-21.211s-15.352-5.859-21.211 0l-19.395 19.395V76c3.839 0 7.677-1.465 10.606-4.395z" opacity="1" data-original="#d92c49" class=""></path><path fill="#8ae68a" d="M436.998 166h-120c-8.291 0-15-6.709-15-15V61c0-8.291 6.709-15 15-15h120c8.291 0 15 6.709 15 15v90c0 8.291-6.709 15-15 15z" opacity="1" data-original="#8ae68a" class=""></path><path fill="#60bf80" d="M436.998 46h-60v120h60c8.291 0 15-6.709 15-15V61c0-8.291-6.709-15-15-15z" opacity="1" data-original="#60bf80" class=""></path><path fill="#80334d" d="M90.059 135.996 65.543 46H15C6.709 46 0 39.291 0 31s6.709-15 15-15h61.998a15.002 15.002 0 0 1 14.473 11.06l32.695 120zM406.998 406h-240c-8.262 0-15-6.724-15-15 0-7.749 5.801-14.165 13.477-14.927 8.232-.82 14.268-8.174 13.418-16.421-.791-8.232-8.174-13.96-16.406-13.433-23.086 2.3-40.488 21.548-40.488 44.78 0 24.814 20.186 45 45 45h240c8.291 0 15-6.709 15-15S415.289 406 406.998 406z" opacity="1" data-original="#80334d" class=""></path><path fill="#59243f" d="M406.998 406h-90v30h90c8.291 0 15-6.709 15-15s-6.709-15-15-15z" opacity="1" data-original="#59243f"></path><path fill="#f24973" d="M166.998 375.707c-6.709 0-12.686-4.468-14.473-11.045L90.041 136h406.957c4.395 0 8.584 1.934 11.455 5.303a14.993 14.993 0 0 1 3.34 12.158l-30 180a14.991 14.991 0 0 1-13.33 12.466c-343.553 33.991-297.863 29.78-301.465 29.78z" opacity="1" data-original="#f24973" class=""></path><path fill="#d92c49" d="M496.998 136h-180v224.938c39.391-3.913 88.911-8.822 151.465-15.011a14.99 14.99 0 0 0 13.33-12.466l30-180a14.992 14.992 0 0 0-3.34-12.158A15.06 15.06 0 0 0 496.998 136z" opacity="1" data-original="#d92c49" class=""></path><path fill="#59243f" d="M406.998 496c-24.814 0-45-20.186-45-45s20.186-45 45-45 45 20.186 45 45-20.186 45-45 45z" opacity="1" data-original="#59243f"></path><circle cx="406.998" cy="451" r="15" fill="#d9e5ff" opacity="1" data-original="#d9e5ff"></circle><path fill="#80334d" d="M196.998 496c-24.814 0-45-20.186-45-45s20.186-45 45-45 45 20.186 45 45-20.186 45-45 45z" opacity="1" data-original="#80334d" class=""></path><circle cx="196.998" cy="451" r="15" fill="#ecf2ff" opacity="1" data-original="#ecf2ff" class=""></circle><path fill="#d9e5ff" d="M406.998 286c-8.291 0-15-6.709-15-15v-60c0-8.291 6.709-15 15-15s15 6.709 15 15v60c0 8.291-6.709 15-15 15z" opacity="1" data-original="#d9e5ff"></path><path fill="#ecf2ff" d="M226.998 286c-8.291 0-15-6.709-15-15v-60c0-8.291 6.709-15 15-15s15 6.709 15 15v60c0 8.291-6.709 15-15 15zM316.998 286c-8.291 0-15-6.709-15-15v-60c0-8.291 6.709-15 15-15s15 6.709 15 15v60c0 8.291-6.709 15-15 15z" opacity="1" data-original="#ecf2ff" class=""></path><path fill="#d9e5ff" d="M331.998 271v-60c0-8.291-6.709-15-15-15v90c8.291 0 15-6.709 15-15z" opacity="1" data-original="#d9e5ff"></path></g></svg>